<?xml version="1.0" encoding="UTF-8"?>
<svg id="Layer_1" xmlns="http://www.w3.org/2000/svg" version="1.1" viewBox="0 0 640 640">
  <!-- Generator: Adobe Illustrator 29.1.0, SVG Export Plug-In . SVG Version: 2.1.0 Build 142)  -->
  <defs>
    <style>
      .st0 {
        fill: #fff;
      }
    </style>
  </defs>
  <path class="st0" d="M79.4,380.2C46.2,247.3,126.9,112.7,259.8,79.4c132.9-33.3,267.5,47.5,300.8,180.4,33.2,132.9-47.5,267.5-180.4,300.8-132.9,33.2-267.5-47.5-300.8-180.4h0ZM414.6,260c-3.3-33.2-31.9-44.3-68.2-47.5v-46.1h-28.1v44.8c-7.4,0-14.9.1-22.4.3v-45.1h-28.1v46.1c-6.1.2-12,.2-17.9.2h-38.7c0-.1,0,29.9,0,29.9,0,0,20.8-.4,20.5,0,11.4,0,15,6.5,16.2,12.2v52.5c.9,0,1.8,0,3,.2h-3v73.5c-.4,3.5-2.6,9.3-10.5,9.3.4.3-20.4,0-20.4,0l-5.6,33.4h56.5v46.6h28v-46.1c7.5.2,14.9.2,22.4.2v45.9h28.1v-46.5c47.2-2.7,80.2-14.7,84.2-58.9,3.2-35.7-13.5-51.6-40.3-58,16.3-8.3,26.4-22.9,24-47.1h.2v.2h0ZM375.4,359.6c0,34.8-59.6,30.9-78.7,30.9v-61.7c18.9,0,78.5-5.5,78.6,30.8h0ZM362.2,272.5c0,31.7-49.7,28-65.6,28v-56c15.8,0,65.5-5.1,65.5,27.9h.1Z"/>
</svg>